<mxfile host="app.diagrams.net" agent="Mozilla/5.0 (Windows NT 10.0; Win64; x64) AppleWebKit/537.36 (KHTML, like Gecko) Chrome/133.0.0.0 Safari/537.36" version="26.0.16">
  <diagram name="Page-1" id="aKkInOcH7OCBhXYk2Kkp">
    <mxGraphModel dx="1235" dy="614" grid="1" gridSize="10" guides="1" tooltips="1" connect="1" arrows="1" fold="1" page="1" pageScale="1" pageWidth="850" pageHeight="1100" math="0" shadow="0">
      <root>
        <mxCell id="0" />
        <mxCell id="1" parent="0" />
        <mxCell id="h_vnK0ItbaCOXTxvC3hH-6" value="Delivery Agent" style="rounded=0;whiteSpace=wrap;html=1;" parent="1" vertex="1">
          <mxGeometry x="80" y="305" width="100" height="50" as="geometry" />
        </mxCell>
        <mxCell id="h_vnK0ItbaCOXTxvC3hH-7" value="Login" style="ellipse;whiteSpace=wrap;html=1;" parent="1" vertex="1">
          <mxGeometry x="260" y="297.5" width="100" height="65" as="geometry" />
        </mxCell>
        <mxCell id="h_vnK0ItbaCOXTxvC3hH-37" value="" style="endArrow=classic;html=1;rounded=0;entryX=0;entryY=0.5;entryDx=0;entryDy=0;" parent="1" target="h_vnK0ItbaCOXTxvC3hH-7" edge="1">
          <mxGeometry width="50" height="50" relative="1" as="geometry">
            <mxPoint x="180" y="330" as="sourcePoint" />
            <mxPoint x="230" y="280" as="targetPoint" />
          </mxGeometry>
        </mxCell>
        <mxCell id="h_vnK0ItbaCOXTxvC3hH-38" value="" style="endArrow=classic;html=1;rounded=0;exitX=0.966;exitY=0.321;exitDx=0;exitDy=0;entryX=0;entryY=0.5;entryDx=0;entryDy=0;exitPerimeter=0;" parent="1" source="h_vnK0ItbaCOXTxvC3hH-7" target="pH1ICB9yMPxBHzyFuX5G-12" edge="1">
          <mxGeometry width="50" height="50" relative="1" as="geometry">
            <mxPoint x="360" y="325" as="sourcePoint" />
            <mxPoint x="440" y="280" as="targetPoint" />
          </mxGeometry>
        </mxCell>
        <mxCell id="h_vnK0ItbaCOXTxvC3hH-41" value="" style="endArrow=classic;html=1;rounded=0;exitX=0.986;exitY=0.621;exitDx=0;exitDy=0;entryX=0;entryY=0.5;entryDx=0;entryDy=0;exitPerimeter=0;" parent="1" source="h_vnK0ItbaCOXTxvC3hH-7" target="4jRgUvc_Bg7F60Bj7d_5-1" edge="1">
          <mxGeometry width="50" height="50" relative="1" as="geometry">
            <mxPoint x="430" y="370" as="sourcePoint" />
            <mxPoint x="430" y="370" as="targetPoint" />
          </mxGeometry>
        </mxCell>
        <mxCell id="pH1ICB9yMPxBHzyFuX5G-1" value="Register" style="ellipse;whiteSpace=wrap;html=1;" parent="1" vertex="1">
          <mxGeometry x="260" y="141" width="97.5" height="65" as="geometry" />
        </mxCell>
        <mxCell id="pH1ICB9yMPxBHzyFuX5G-2" value="" style="group" parent="1" vertex="1" connectable="0">
          <mxGeometry x="430" y="163.5" width="85" height="20" as="geometry" />
        </mxCell>
        <mxCell id="pH1ICB9yMPxBHzyFuX5G-3" value="" style="shape=partialRectangle;whiteSpace=wrap;html=1;left=0;right=0;fillColor=none;" parent="pH1ICB9yMPxBHzyFuX5G-2" vertex="1">
          <mxGeometry width="85" height="20" as="geometry" />
        </mxCell>
        <mxCell id="pH1ICB9yMPxBHzyFuX5G-4" value="" style="shape=partialRectangle;whiteSpace=wrap;html=1;right=0;top=0;bottom=0;fillColor=none;routingCenterX=-0.5;" parent="pH1ICB9yMPxBHzyFuX5G-2" vertex="1">
          <mxGeometry width="85" height="20" as="geometry" />
        </mxCell>
        <mxCell id="pH1ICB9yMPxBHzyFuX5G-5" value="" style="endArrow=none;html=1;rounded=0;entryX=0.167;entryY=0;entryDx=0;entryDy=0;entryPerimeter=0;" parent="pH1ICB9yMPxBHzyFuX5G-2" target="pH1ICB9yMPxBHzyFuX5G-4" edge="1">
          <mxGeometry width="50" height="50" relative="1" as="geometry">
            <mxPoint x="14.166666666666668" y="20" as="sourcePoint" />
            <mxPoint x="14.166666666666668" as="targetPoint" />
          </mxGeometry>
        </mxCell>
        <mxCell id="pH1ICB9yMPxBHzyFuX5G-6" value="user_tb" style="text;html=1;align=center;verticalAlign=middle;whiteSpace=wrap;rounded=0;" parent="pH1ICB9yMPxBHzyFuX5G-2" vertex="1">
          <mxGeometry x="15.210526315789474" width="65.3157894736842" height="20" as="geometry" />
        </mxCell>
        <mxCell id="pH1ICB9yMPxBHzyFuX5G-7" value="&lt;font style=&quot;font-size: 10px;&quot;&gt;Request&lt;/font&gt;" style="text;html=1;align=center;verticalAlign=middle;whiteSpace=wrap;rounded=0;rotation=0;" parent="1" vertex="1">
          <mxGeometry x="361.91" y="156" width="60" height="10" as="geometry" />
        </mxCell>
        <mxCell id="pH1ICB9yMPxBHzyFuX5G-8" value="" style="endArrow=classic;html=1;rounded=0;exitX=1;exitY=0.5;exitDx=0;exitDy=0;entryX=0.002;entryY=0.294;entryDx=0;entryDy=0;entryPerimeter=0;" parent="1" target="pH1ICB9yMPxBHzyFuX5G-4" edge="1">
          <mxGeometry width="50" height="50" relative="1" as="geometry">
            <mxPoint x="358.90999999999997" y="168" as="sourcePoint" />
            <mxPoint x="417.40999999999997" y="168" as="targetPoint" />
          </mxGeometry>
        </mxCell>
        <mxCell id="pH1ICB9yMPxBHzyFuX5G-9" value="" style="endArrow=classic;html=1;rounded=0;exitX=-0.006;exitY=0.608;exitDx=0;exitDy=0;entryX=0.989;entryY=0.593;entryDx=0;entryDy=0;entryPerimeter=0;exitPerimeter=0;" parent="1" source="pH1ICB9yMPxBHzyFuX5G-4" edge="1">
          <mxGeometry width="50" height="50" relative="1" as="geometry">
            <mxPoint x="557.41" y="174.5" as="sourcePoint" />
            <mxPoint x="358.00249999999994" y="174.615" as="targetPoint" />
          </mxGeometry>
        </mxCell>
        <mxCell id="pH1ICB9yMPxBHzyFuX5G-10" value="&lt;font style=&quot;font-size: 10px;&quot;&gt;Response&lt;/font&gt;" style="text;html=1;align=center;verticalAlign=middle;whiteSpace=wrap;rounded=0;rotation=0;" parent="1" vertex="1">
          <mxGeometry x="365.91" y="174" width="60" height="13" as="geometry" />
        </mxCell>
        <mxCell id="pH1ICB9yMPxBHzyFuX5G-11" value="" style="endArrow=classic;html=1;rounded=0;exitX=0.456;exitY=0.998;exitDx=0;exitDy=0;exitPerimeter=0;entryX=0.468;entryY=-0.015;entryDx=0;entryDy=0;entryPerimeter=0;" parent="1" target="h_vnK0ItbaCOXTxvC3hH-7" edge="1">
          <mxGeometry width="50" height="50" relative="1" as="geometry">
            <mxPoint x="308.48" y="206" as="sourcePoint" />
            <mxPoint x="309.02" y="283.13" as="targetPoint" />
          </mxGeometry>
        </mxCell>
        <mxCell id="pH1ICB9yMPxBHzyFuX5G-12" value="View, Update&lt;div&gt;Profile&lt;/div&gt;" style="ellipse;whiteSpace=wrap;html=1;" parent="1" vertex="1">
          <mxGeometry x="429.12" y="248" width="97.5" height="65" as="geometry" />
        </mxCell>
        <mxCell id="pH1ICB9yMPxBHzyFuX5G-13" value="&lt;font style=&quot;font-size: 9px;&quot;&gt;Request&lt;/font&gt;" style="text;html=1;align=center;verticalAlign=middle;whiteSpace=wrap;rounded=0;rotation=270;" parent="1" vertex="1">
          <mxGeometry x="430.11999999999995" y="212" width="60" height="10" as="geometry" />
        </mxCell>
        <mxCell id="pH1ICB9yMPxBHzyFuX5G-14" value="" style="endArrow=classic;html=1;rounded=0;entryX=0;entryY=1;entryDx=0;entryDy=0;exitX=0.587;exitY=0.009;exitDx=0;exitDy=0;exitPerimeter=0;" parent="1" source="h_vnK0ItbaCOXTxvC3hH-7" edge="1">
          <mxGeometry width="50" height="50" relative="1" as="geometry">
            <mxPoint x="324.8375000000001" y="285.23" as="sourcePoint" />
            <mxPoint x="430" y="182.5" as="targetPoint" />
          </mxGeometry>
        </mxCell>
        <mxCell id="pH1ICB9yMPxBHzyFuX5G-15" value="" style="endArrow=classic;html=1;rounded=0;exitX=0.116;exitY=0.986;exitDx=0;exitDy=0;exitPerimeter=0;entryX=0.684;entryY=0.021;entryDx=0;entryDy=0;entryPerimeter=0;" parent="1" source="pH1ICB9yMPxBHzyFuX5G-4" target="h_vnK0ItbaCOXTxvC3hH-7" edge="1">
          <mxGeometry width="50" height="50" relative="1" as="geometry">
            <mxPoint x="480" y="301" as="sourcePoint" />
            <mxPoint x="333" y="287" as="targetPoint" />
          </mxGeometry>
        </mxCell>
        <mxCell id="pH1ICB9yMPxBHzyFuX5G-16" value="&lt;font style=&quot;font-size: 10px;&quot;&gt;Request&lt;/font&gt;" style="text;html=1;align=center;verticalAlign=middle;whiteSpace=wrap;rounded=0;rotation=316;" parent="1" vertex="1">
          <mxGeometry x="342" y="226" width="60" height="10" as="geometry" />
        </mxCell>
        <mxCell id="pH1ICB9yMPxBHzyFuX5G-17" value="&lt;font style=&quot;font-size: 10px;&quot;&gt;Response&lt;/font&gt;" style="text;html=1;align=center;verticalAlign=middle;whiteSpace=wrap;rounded=0;rotation=314;" parent="1" vertex="1">
          <mxGeometry x="358.91" y="238" width="60" height="13" as="geometry" />
        </mxCell>
        <mxCell id="pH1ICB9yMPxBHzyFuX5G-18" value="" style="endArrow=classic;html=1;rounded=0;entryX=0.376;entryY=0.984;entryDx=0;entryDy=0;entryPerimeter=0;exitX=0.418;exitY=-0.012;exitDx=0;exitDy=0;exitPerimeter=0;" parent="1" source="pH1ICB9yMPxBHzyFuX5G-12" target="pH1ICB9yMPxBHzyFuX5G-6" edge="1">
          <mxGeometry width="50" height="50" relative="1" as="geometry">
            <mxPoint x="410" y="261" as="sourcePoint" />
            <mxPoint x="460" y="211" as="targetPoint" />
          </mxGeometry>
        </mxCell>
        <mxCell id="pH1ICB9yMPxBHzyFuX5G-19" value="" style="endArrow=classic;html=1;rounded=0;entryX=0.514;entryY=-0.002;entryDx=0;entryDy=0;exitX=0.521;exitY=1.014;exitDx=0;exitDy=0;exitPerimeter=0;entryPerimeter=0;" parent="1" source="pH1ICB9yMPxBHzyFuX5G-6" target="pH1ICB9yMPxBHzyFuX5G-12" edge="1">
          <mxGeometry width="50" height="50" relative="1" as="geometry">
            <mxPoint x="440" y="211" as="sourcePoint" />
            <mxPoint x="490" y="161" as="targetPoint" />
          </mxGeometry>
        </mxCell>
        <mxCell id="pH1ICB9yMPxBHzyFuX5G-21" value="&lt;font style=&quot;font-size: 9px;&quot;&gt;Response&lt;/font&gt;" style="text;html=1;align=center;verticalAlign=middle;whiteSpace=wrap;rounded=0;rotation=90;" parent="1" vertex="1">
          <mxGeometry x="457.99999999999994" y="210" width="60" height="10" as="geometry" />
        </mxCell>
        <mxCell id="pH1ICB9yMPxBHzyFuX5G-22" value="" style="endArrow=classic;html=1;rounded=0;entryX=0.016;entryY=0.69;entryDx=0;entryDy=0;entryPerimeter=0;" parent="1" target="pH1ICB9yMPxBHzyFuX5G-1" edge="1">
          <mxGeometry width="50" height="50" relative="1" as="geometry">
            <mxPoint x="150" y="305.5" as="sourcePoint" />
            <mxPoint x="200" y="255.5" as="targetPoint" />
          </mxGeometry>
        </mxCell>
        <mxCell id="4jRgUvc_Bg7F60Bj7d_5-1" value="&lt;div&gt;View,&amp;nbsp;&lt;span style=&quot;background-color: transparent; color: light-dark(rgb(0, 0, 0), rgb(255, 255, 255));&quot;&gt;Update&lt;/span&gt;&lt;/div&gt;&lt;div&gt;Order&lt;br&gt;&lt;/div&gt;" style="ellipse;whiteSpace=wrap;html=1;" vertex="1" parent="1">
          <mxGeometry x="430.12" y="327" width="97.5" height="65" as="geometry" />
        </mxCell>
        <mxCell id="4jRgUvc_Bg7F60Bj7d_5-2" value="" style="group" vertex="1" connectable="0" parent="1">
          <mxGeometry x="595.12" y="365" width="109" height="20" as="geometry" />
        </mxCell>
        <mxCell id="4jRgUvc_Bg7F60Bj7d_5-3" value="" style="shape=partialRectangle;whiteSpace=wrap;html=1;left=0;right=0;fillColor=none;" vertex="1" parent="4jRgUvc_Bg7F60Bj7d_5-2">
          <mxGeometry width="109.00000000000001" height="20" as="geometry" />
        </mxCell>
        <mxCell id="4jRgUvc_Bg7F60Bj7d_5-4" value="" style="shape=partialRectangle;whiteSpace=wrap;html=1;right=0;top=0;bottom=0;fillColor=none;routingCenterX=-0.5;" vertex="1" parent="4jRgUvc_Bg7F60Bj7d_5-2">
          <mxGeometry width="109.00000000000001" height="20" as="geometry" />
        </mxCell>
        <mxCell id="4jRgUvc_Bg7F60Bj7d_5-5" value="" style="endArrow=none;html=1;rounded=0;entryX=0.167;entryY=0;entryDx=0;entryDy=0;entryPerimeter=0;" edge="1" parent="4jRgUvc_Bg7F60Bj7d_5-2">
          <mxGeometry width="50" height="50" relative="1" as="geometry">
            <mxPoint x="14.166666666666671" y="20" as="sourcePoint" />
            <mxPoint x="14.203000000000088" as="targetPoint" />
          </mxGeometry>
        </mxCell>
        <mxCell id="4jRgUvc_Bg7F60Bj7d_5-6" value="order_details_tb" style="text;html=1;align=center;verticalAlign=middle;whiteSpace=wrap;rounded=0;" vertex="1" parent="4jRgUvc_Bg7F60Bj7d_5-2">
          <mxGeometry x="19.50526315789474" width="83.7578947368421" height="20" as="geometry" />
        </mxCell>
        <mxCell id="4jRgUvc_Bg7F60Bj7d_5-7" value="" style="group" vertex="1" connectable="0" parent="1">
          <mxGeometry x="595.12" y="338" width="85" height="20" as="geometry" />
        </mxCell>
        <mxCell id="4jRgUvc_Bg7F60Bj7d_5-8" value="" style="shape=partialRectangle;whiteSpace=wrap;html=1;left=0;right=0;fillColor=none;" vertex="1" parent="4jRgUvc_Bg7F60Bj7d_5-7">
          <mxGeometry width="85" height="20" as="geometry" />
        </mxCell>
        <mxCell id="4jRgUvc_Bg7F60Bj7d_5-9" value="" style="shape=partialRectangle;whiteSpace=wrap;html=1;right=0;top=0;bottom=0;fillColor=none;routingCenterX=-0.5;" vertex="1" parent="4jRgUvc_Bg7F60Bj7d_5-7">
          <mxGeometry width="85" height="20" as="geometry" />
        </mxCell>
        <mxCell id="4jRgUvc_Bg7F60Bj7d_5-10" value="" style="endArrow=none;html=1;rounded=0;entryX=0.167;entryY=0;entryDx=0;entryDy=0;entryPerimeter=0;" edge="1" parent="4jRgUvc_Bg7F60Bj7d_5-7" target="4jRgUvc_Bg7F60Bj7d_5-9">
          <mxGeometry width="50" height="50" relative="1" as="geometry">
            <mxPoint x="14.166666666666668" y="20" as="sourcePoint" />
            <mxPoint x="14.166666666666668" as="targetPoint" />
          </mxGeometry>
        </mxCell>
        <mxCell id="4jRgUvc_Bg7F60Bj7d_5-11" value="order_tb" style="text;html=1;align=center;verticalAlign=middle;whiteSpace=wrap;rounded=0;" vertex="1" parent="4jRgUvc_Bg7F60Bj7d_5-7">
          <mxGeometry x="15.210526315789474" width="65.3157894736842" height="20" as="geometry" />
        </mxCell>
        <mxCell id="4jRgUvc_Bg7F60Bj7d_5-12" value="" style="endArrow=classic;html=1;rounded=0;entryX=0;entryY=0.197;entryDx=0;entryDy=0;exitX=0.919;exitY=0.232;exitDx=0;exitDy=0;exitPerimeter=0;entryPerimeter=0;" edge="1" parent="1" source="4jRgUvc_Bg7F60Bj7d_5-1">
          <mxGeometry width="50" height="50" relative="1" as="geometry">
            <mxPoint x="518.12" y="342" as="sourcePoint" />
            <mxPoint x="595.12" y="343" as="targetPoint" />
          </mxGeometry>
        </mxCell>
        <mxCell id="4jRgUvc_Bg7F60Bj7d_5-13" value="" style="endArrow=classic;html=1;rounded=0;entryX=0;entryY=0.197;entryDx=0;entryDy=0;entryPerimeter=0;exitX=0.975;exitY=0.659;exitDx=0;exitDy=0;exitPerimeter=0;" edge="1" parent="1" source="4jRgUvc_Bg7F60Bj7d_5-1">
          <mxGeometry width="50" height="50" relative="1" as="geometry">
            <mxPoint x="526.12" y="370" as="sourcePoint" />
            <mxPoint x="595.12" y="371" as="targetPoint" />
          </mxGeometry>
        </mxCell>
        <mxCell id="4jRgUvc_Bg7F60Bj7d_5-14" value="" style="endArrow=classic;html=1;rounded=0;entryX=0.982;entryY=0.356;entryDx=0;entryDy=0;entryPerimeter=0;exitX=-0.005;exitY=0.642;exitDx=0;exitDy=0;exitPerimeter=0;" edge="1" parent="1">
          <mxGeometry width="50" height="50" relative="1" as="geometry">
            <mxPoint x="595.12" y="352" as="sourcePoint" />
            <mxPoint x="526.12" y="352" as="targetPoint" />
          </mxGeometry>
        </mxCell>
        <mxCell id="4jRgUvc_Bg7F60Bj7d_5-15" value="" style="endArrow=classic;html=1;rounded=0;entryX=0.908;entryY=0.796;entryDx=0;entryDy=0;entryPerimeter=0;exitX=-0.002;exitY=0.659;exitDx=0;exitDy=0;exitPerimeter=0;" edge="1" parent="1" target="4jRgUvc_Bg7F60Bj7d_5-1">
          <mxGeometry width="50" height="50" relative="1" as="geometry">
            <mxPoint x="595.12" y="379" as="sourcePoint" />
            <mxPoint x="520.12" y="379" as="targetPoint" />
          </mxGeometry>
        </mxCell>
        <mxCell id="4jRgUvc_Bg7F60Bj7d_5-16" value="&lt;font style=&quot;font-size: 9px;&quot;&gt;Request&lt;/font&gt;" style="text;html=1;align=center;verticalAlign=middle;whiteSpace=wrap;rounded=0;" vertex="1" parent="1">
          <mxGeometry x="527.62" y="330" width="60" height="10" as="geometry" />
        </mxCell>
        <mxCell id="4jRgUvc_Bg7F60Bj7d_5-17" value="&lt;font style=&quot;font-size: 9px;&quot;&gt;Request&lt;/font&gt;" style="text;html=1;align=center;verticalAlign=middle;whiteSpace=wrap;rounded=0;" vertex="1" parent="1">
          <mxGeometry x="530.62" y="359" width="60" height="10" as="geometry" />
        </mxCell>
        <mxCell id="4jRgUvc_Bg7F60Bj7d_5-18" value="&lt;font style=&quot;font-size: 9px;&quot;&gt;Response&lt;/font&gt;" style="text;html=1;align=center;verticalAlign=middle;whiteSpace=wrap;rounded=0;" vertex="1" parent="1">
          <mxGeometry x="530.62" y="351" width="60" height="10" as="geometry" />
        </mxCell>
        <mxCell id="4jRgUvc_Bg7F60Bj7d_5-19" value="&lt;font style=&quot;font-size: 9px;&quot;&gt;Response&lt;/font&gt;" style="text;html=1;align=center;verticalAlign=middle;whiteSpace=wrap;rounded=0;" vertex="1" parent="1">
          <mxGeometry x="530.62" y="379" width="60" height="10" as="geometry" />
        </mxCell>
        <mxCell id="4jRgUvc_Bg7F60Bj7d_5-20" value="&lt;div&gt;View,Update&lt;/div&gt;&lt;div&gt;Payment Status&lt;/div&gt;" style="ellipse;whiteSpace=wrap;html=1;" vertex="1" parent="1">
          <mxGeometry x="429.12" y="407" width="97.5" height="65" as="geometry" />
        </mxCell>
        <mxCell id="4jRgUvc_Bg7F60Bj7d_5-21" value="" style="group" vertex="1" connectable="0" parent="1">
          <mxGeometry x="594.12" y="429.5" width="85" height="20" as="geometry" />
        </mxCell>
        <mxCell id="4jRgUvc_Bg7F60Bj7d_5-22" value="" style="shape=partialRectangle;whiteSpace=wrap;html=1;left=0;right=0;fillColor=none;" vertex="1" parent="4jRgUvc_Bg7F60Bj7d_5-21">
          <mxGeometry width="85" height="20" as="geometry" />
        </mxCell>
        <mxCell id="4jRgUvc_Bg7F60Bj7d_5-23" value="" style="shape=partialRectangle;whiteSpace=wrap;html=1;right=0;top=0;bottom=0;fillColor=none;routingCenterX=-0.5;" vertex="1" parent="4jRgUvc_Bg7F60Bj7d_5-21">
          <mxGeometry width="85" height="20" as="geometry" />
        </mxCell>
        <mxCell id="4jRgUvc_Bg7F60Bj7d_5-24" value="" style="endArrow=none;html=1;rounded=0;entryX=0.167;entryY=0;entryDx=0;entryDy=0;entryPerimeter=0;" edge="1" parent="4jRgUvc_Bg7F60Bj7d_5-21" target="4jRgUvc_Bg7F60Bj7d_5-23">
          <mxGeometry width="50" height="50" relative="1" as="geometry">
            <mxPoint x="14.166666666666668" y="20" as="sourcePoint" />
            <mxPoint x="14.166666666666668" as="targetPoint" />
          </mxGeometry>
        </mxCell>
        <mxCell id="4jRgUvc_Bg7F60Bj7d_5-25" value="payment_tb" style="text;html=1;align=center;verticalAlign=middle;whiteSpace=wrap;rounded=0;" vertex="1" parent="4jRgUvc_Bg7F60Bj7d_5-21">
          <mxGeometry x="15.210526315789474" width="65.3157894736842" height="20" as="geometry" />
        </mxCell>
        <mxCell id="4jRgUvc_Bg7F60Bj7d_5-26" value="" style="endArrow=classic;html=1;rounded=0;entryX=-0.001;entryY=0.297;entryDx=0;entryDy=0;entryPerimeter=0;exitX=0.999;exitY=0.455;exitDx=0;exitDy=0;exitPerimeter=0;" edge="1" parent="1" source="4jRgUvc_Bg7F60Bj7d_5-20">
          <mxGeometry width="50" height="50" relative="1" as="geometry">
            <mxPoint x="527.12" y="436.5" as="sourcePoint" />
            <mxPoint x="594.12" y="436.5" as="targetPoint" />
          </mxGeometry>
        </mxCell>
        <mxCell id="4jRgUvc_Bg7F60Bj7d_5-27" value="" style="endArrow=classic;html=1;rounded=0;entryX=0.994;entryY=0.572;entryDx=0;entryDy=0;entryPerimeter=0;exitX=0.004;exitY=0.664;exitDx=0;exitDy=0;exitPerimeter=0;" edge="1" parent="1">
          <mxGeometry width="50" height="50" relative="1" as="geometry">
            <mxPoint x="594.12" y="443.5" as="sourcePoint" />
            <mxPoint x="526.12" y="443.5" as="targetPoint" />
          </mxGeometry>
        </mxCell>
        <mxCell id="4jRgUvc_Bg7F60Bj7d_5-28" value="&lt;font style=&quot;font-size: 9px;&quot;&gt;Request&lt;/font&gt;" style="text;html=1;align=center;verticalAlign=middle;whiteSpace=wrap;rounded=0;" vertex="1" parent="1">
          <mxGeometry x="530.62" y="424.5" width="60" height="10" as="geometry" />
        </mxCell>
        <mxCell id="4jRgUvc_Bg7F60Bj7d_5-29" value="&lt;font style=&quot;font-size: 9px;&quot;&gt;Response&lt;/font&gt;" style="text;html=1;align=center;verticalAlign=middle;whiteSpace=wrap;rounded=0;" vertex="1" parent="1">
          <mxGeometry x="533.62" y="443.5" width="60" height="10" as="geometry" />
        </mxCell>
        <mxCell id="4jRgUvc_Bg7F60Bj7d_5-30" value="" style="endArrow=classic;html=1;rounded=0;exitX=0.883;exitY=0.813;exitDx=0;exitDy=0;entryX=0.031;entryY=0.345;entryDx=0;entryDy=0;exitPerimeter=0;entryPerimeter=0;" edge="1" parent="1" source="h_vnK0ItbaCOXTxvC3hH-7" target="4jRgUvc_Bg7F60Bj7d_5-20">
          <mxGeometry width="50" height="50" relative="1" as="geometry">
            <mxPoint x="369" y="348" as="sourcePoint" />
            <mxPoint x="440" y="370" as="targetPoint" />
          </mxGeometry>
        </mxCell>
      </root>
    </mxGraphModel>
  </diagram>
</mxfile>
